# Blender v2.93.6 OBJ File: ''
# www.blender.org
mtllib box.mtl
o Cube
v 0.421578 0.421578 -0.421578
v 0.421578 -0.421578 -0.421578
v 0.421578 0.421578 0.421578
v 0.421578 -0.421578 0.421578
v -0.421578 0.421578 -0.421578
v -0.421578 -0.421578 -0.421578
v -0.421578 0.421578 0.421578
v -0.421578 -0.421578 0.421578
v 0.329855 0.428135 0.329855
v -0.329855 0.428135 0.329855
v 0.329855 0.428135 -0.329855
v -0.329855 0.428135 -0.329855
v 0.329855 -0.345810 0.329855
v -0.329855 -0.345810 0.329855
v 0.329855 -0.345810 -0.329855
v -0.329855 -0.345810 -0.329855
v -0.421578 0.302460 -0.421578
v -0.421578 0.302460 0.421578
v 0.421578 0.302460 -0.421578
v 0.421578 0.421076 -0.421578
v -0.421578 0.421076 0.421578
v 0.421578 0.421076 0.421578
v 0.421578 0.302460 0.421578
v -0.421578 0.421076 -0.421578
v -0.464350 0.298635 -0.464350
v -0.464350 0.298635 0.464350
v 0.464350 0.298635 -0.464350
v 0.464350 0.429285 -0.464350
v -0.464350 0.429285 0.464350
v 0.464350 0.429285 0.464350
v 0.464350 0.298635 0.464350
v -0.464350 0.429285 -0.464350
vt 0.625000 0.500000
vt 0.625000 0.250000
vt 0.625000 0.250000
vt 0.625000 0.500000
vt 0.375000 0.750000
vt 0.375000 0.500000
vt 0.375000 0.500000
vt 0.375000 0.750000
vt 0.625000 0.750000
vt 0.625000 1.000000
vt 0.625000 1.000000
vt 0.625000 0.750000
vt 0.125000 0.500000
vt 0.125000 0.750000
vt 0.125000 0.750000
vt 0.625000 0.500000
vt 0.625000 0.250000
vt 0.625000 0.250000
vt 0.625000 0.500000
vt 0.625000 0.750000
vt 0.625000 1.000000
vt 0.625000 0.000000
vt 0.625000 0.000000
vt 0.875000 0.500000
vt 0.875000 0.750000
vt 0.625000 0.750000
vt 0.625000 0.000000
vt 0.625000 1.000000
vt 0.625000 0.750000
vt 0.625000 0.500000
vt 0.625000 0.000000
vt 0.625000 0.250000
vt 0.625000 0.000000
vt 0.125000 0.500000
vt 0.125000 0.750000
vt 0.125000 0.500000
vt 0.375000 0.500000
vt 0.375000 0.750000
vt 0.625000 1.000000
vt 0.375000 1.000000
vt 0.375000 0.000000
vt 0.375000 0.250000
vn 0.0000 0.9975 -0.0713
vn 1.0000 0.0000 0.0000
vn 0.0000 -0.0001 1.0000
vn 0.0000 -1.0000 0.0000
vn 0.0000 0.0000 1.0000
vn 0.0000 -0.0001 -1.0000
vn 0.0000 0.9975 0.0713
vn -0.0713 0.9975 0.0000
vn 0.0713 0.9975 0.0000
vn 0.0000 1.0000 0.0000
vn -1.0000 0.0000 0.0000
vn 0.0000 0.0000 -1.0000
vn -0.1885 0.9821 0.0000
vn 0.1885 0.9821 0.0000
vn 0.0891 -0.9960 0.0000
vn -0.0891 -0.9960 0.0000
vn -1.0000 -0.0001 0.0000
vn 1.0000 -0.0001 0.0000
vn 0.0000 -0.9960 0.0891
vn 0.0000 0.9821 0.1885
vn 0.0000 -0.9960 -0.0891
vn 0.0000 0.9821 -0.1885
usemtl Material
s off
f 1/1/1 5/2/1 12/3/1 11/4/1
f 4/5/2 2/6/2 19/7/2 23/8/2
f 3/9/3 7/10/3 21/11/3 22/12/3
f 6/13/4 2/6/4 4/5/4 8/14/4
f 8/14/5 4/5/5 23/8/5 18/15/5
f 5/2/6 1/1/6 20/16/6 24/17/6
f 11/4/5 12/3/5 16/18/5 15/19/5
f 7/10/7 3/9/7 9/20/7 10/21/7
f 5/2/8 7/22/8 10/23/8 12/3/8
f 3/9/9 1/1/9 11/4/9 9/20/9
f 15/19/10 16/24/10 14/25/10 13/26/10
f 9/20/11 11/4/11 15/19/11 13/26/11
f 12/3/2 10/23/2 14/27/2 16/18/2
f 10/21/12 9/20/12 13/26/12 14/28/12
f 20/16/13 22/12/13 30/29/13 28/30/13
f 21/31/14 24/17/14 32/32/14 29/33/14
f 17/34/15 18/15/15 26/35/15 25/36/15
f 23/8/16 19/7/16 27/37/16 31/38/16
f 6/13/11 8/14/11 18/15/11 17/34/11
f 7/22/17 5/2/17 24/17/17 21/31/17
f 1/1/18 3/9/18 22/12/18 20/16/18
f 2/6/12 6/13/12 17/34/12 19/7/12
f 31/38/5 30/29/5 29/39/5 26/40/5
f 26/41/11 29/33/11 32/32/11 25/42/11
f 27/37/2 28/30/2 30/29/2 31/38/2
f 25/42/12 32/32/12 28/30/12 27/37/12
f 19/7/19 17/34/19 25/36/19 27/37/19
f 24/17/20 20/16/20 28/30/20 32/32/20
f 18/15/21 23/8/21 31/38/21 26/35/21
f 22/12/22 21/11/22 29/39/22 30/29/22
